<svg xmlns="http://www.w3.org/2000/svg" enable-background="new 0 0 48 48" viewBox="0 0 48 48"><path fill="#689F38" d="M3.6,13.8c0-1.1,0.2-2.2,0.6-3.3l0.1-0.2c0.4-1,0.8-1.9,1.4-2.7c0.1-0.1,0.1-0.2,0.2-0.3 C6.4,6.6,7,6,7.6,5.4C8,5.1,8.4,4.8,8.8,4.6c1.3-0.8,2.8-1.4,4.3-1.6c0.2,0,0.4,0,0.5-0.1c1.6-0.2,3.3,0,4.9,0.6 c0.4,0.1,0.7,0.3,1.1,0.5c0.1,0,0.1,0.1,0.2,0.1c0.6,0.3,1.2,0.7,1.8,1.1c0.3,0.2,0.5,0.4,0.8,0.7c0.1,0.1,0.3,0.2,0.4,0.4 c0.3,0.3,0.6,0.6,0.8,1c0.1,0.1,0.2,0.3,0.3,0.4l0,0c0.1-0.1,0.3-0.3,0.4-0.4c0.1-0.1,0.3-0.2,0.4-0.4c0.3-0.2,0.6-0.4,0.9-0.6 c0.3-0.2,0.7-0.3,1-0.4c0.4-0.1,0.7-0.2,1.1-0.3c0.2,0,0.4-0.1,0.6-0.1c0.1,0,0.2,0,0.3,0c0.2,0,0.4,0,0.6,0c0.1,0,0.2,0,0.3,0 l0,0c0.3,0,0.5,0.1,0.7,0.1c0.3,0.1,0.6,0.1,0.9,0.3c0.3,0.1,0.6,0.3,0.9,0.4c0.2,0.1,0.5,0.3,0.7,0.4c0.2,0.1,0.3,0.2,0.5,0.3 c0.3,0.2,0.5,0.5,0.8,0.7c0.1,0.1,0.2,0.2,0.3,0.4c0.3,0.4,0.6,0.8,0.8,1.2c0.1,0.2,0.2,0.4,0.2,0.5c0.6,1.5,0.7,3.3,0.1,5 c-0.2,0.4-0.3,0.8-0.6,1.2c-0.1,0.2-0.2,0.4-0.4,0.5c-0.1,0.2-0.2,0.3-0.4,0.5l0,0c0.3,0.3,0.7,0.7,1,1.1c0.3,0.4,0.5,0.8,0.8,1.2 c0.2,0.4,0.4,0.9,0.6,1.3c0.5,1.5,0.6,3.2,0.3,4.8c-0.1,0.4-0.2,0.8-0.3,1.1c-0.3,0.8-0.7,1.5-1.1,2.2c-2.3,3.2-6.5,4.6-10.4,3.2 c-0.8-0.3-1.5-0.7-2.1-1.1c-0.2-0.1-0.3-0.2-0.5-0.4c-0.4-0.3-0.8-0.7-1.1-1.1c-0.2-0.2-0.3-0.4-0.5-0.6c-0.2-0.3-0.4-0.6-0.6-1 c-0.1-0.2-0.2-0.3-0.3-0.5c-0.2-0.4-0.3-0.7-0.4-1.1c-0.2-0.7-0.3-1.3-0.4-2c-0.8,0.3-1.7,0.6-2.5,0.7c-0.3,0.1-0.6,0.1-0.9,0.1 c-0.2,0-0.4,0-0.6,0c-1.4,0.1-2.8-0.1-4.2-0.6C6.3,22.8,3.5,18.4,3.6,13.8z"/><path fill="#5D4037" d="M28.3,34.2c-1.2,0-2.4-0.2-3.5-0.6c-0.9-0.3-1.7-0.8-2.5-1.3c-0.2-0.1-0.4-0.3-0.6-0.5 c-0.5-0.4-0.9-0.8-1.2-1.2c-0.2-0.2-0.4-0.4-0.6-0.7c-0.3-0.3-0.5-0.7-0.7-1.1L19,28.2c-0.2-0.4-0.3-0.8-0.5-1.3 c-0.1-0.4-0.2-0.7-0.3-1.1c-0.5,0.2-1.1,0.3-1.6,0.4c-0.3,0.1-0.6,0.1-0.9,0.1c-0.3,0-0.5,0-0.7,0c-0.2,0-0.4,0-0.5,0 c-1.4,0-2.9-0.3-4.2-0.7C5.2,23.8,1.9,19,2,13.6c0-1.3,0.2-2.5,0.6-3.7l0.1-0.3c0.4-1.1,0.9-2.1,1.5-3c0.1-0.2,0.2-0.3,0.3-0.4 c0.5-0.7,1.2-1.4,1.9-2c0.5-0.4,0.9-0.7,1.3-0.9c1.5-0.9,3.1-1.5,4.8-1.8c0.2,0,0.4,0,0.6-0.1c1.8-0.2,3.7,0,5.5,0.7 c0.4,0.2,0.8,0.3,1.2,0.5c0.1,0,0.1,0.1,0.2,0.1c0.5,0.2,0.8,0.5,1.1,0.7c0.3,0.2,0.6,0.4,0.9,0.6c0.3,0.3,0.6,0.5,0.9,0.8 c0.1,0.1,0.3,0.3,0.4,0.4c0.2,0.2,0.4,0.4,0.6,0.7l0,0l0.1-0.1c0.4-0.3,0.7-0.5,1.1-0.7c0.4-0.2,0.8-0.4,1.2-0.5 c0.5-0.2,0.9-0.3,1.4-0.3c0.2,0,0.5-0.1,0.7-0.1c0,0,0.2,0,0.3,0l0.2,0c0.2,0,0.4,0,0.6,0c0.1,0,0.2,0,0.3,0c0,0,0,0,0.1,0 c0.3,0,0.6,0.1,0.9,0.2c0.3,0,0.6,0.1,1,0.3c0.3,0.1,0.7,0.3,1,0.4c0.3,0.2,0.6,0.4,0.9,0.5c0.1,0.1,0.3,0.2,0.5,0.4 c0.3,0.3,0.6,0.6,0.9,0.9l0.1,0.1c0.1,0.1,0.2,0.2,0.3,0.3c0.4,0.5,0.7,0.9,0.9,1.4c0.1,0.2,0.2,0.5,0.3,0.7 c0.7,1.9,0.7,3.9,0.1,5.8c-0.2,0.5-0.4,0.9-0.6,1.4c-0.1,0.2-0.2,0.3-0.3,0.5c0.2,0.2,0.3,0.4,0.5,0.6c0.3,0.4,0.6,0.9,0.9,1.4 c0.2,0.4,0.4,0.8,0.6,1.4c0.6,1.8,0.7,3.7,0.3,5.6c-0.1,0.4-0.2,0.9-0.4,1.3c-0.3,0.9-0.8,1.7-1.3,2.5 C34.8,32.5,31.6,34.2,28.3,34.2z M19.1,23.5c0.2,0,0.4,0,0.5,0.1c0.3,0.2,0.5,0.5,0.5,0.8c0,0.6,0.2,1.2,0.4,1.9 c0.1,0.3,0.2,0.7,0.4,1l0.2,0.5c0.2,0.3,0.4,0.6,0.6,0.9c0.2,0.2,0.3,0.4,0.5,0.6c0.3,0.3,0.6,0.7,1,1c0.2,0.1,0.3,0.2,0.4,0.3 c0.6,0.4,1.3,0.8,2,1.1c0.9,0.3,1.8,0.5,2.8,0.5c2.7,0,5.2-1.3,6.8-3.5c0.4-0.6,0.8-1.2,1-2c0.1-0.4,0.2-0.7,0.3-1 c0.3-1.5,0.2-3.1-0.2-4.5c-0.2-0.5-0.3-0.8-0.5-1.2c-0.2-0.4-0.5-0.8-0.7-1.1c-0.3-0.4-0.6-0.7-0.9-1c-0.4-0.4-0.4-1,0-1.4 c0.1-0.1,0.2-0.3,0.3-0.4c0.1-0.2,0.2-0.3,0.3-0.5c0.2-0.3,0.4-0.7,0.5-1c0.5-1.4,0.5-3,0-4.4C35,9.9,35,9.7,34.9,9.6 c-0.2-0.3-0.4-0.7-0.7-1.1c-0.1-0.1-0.1-0.2-0.2-0.2l-0.1-0.1c-0.2-0.2-0.4-0.4-0.7-0.6c-0.1-0.1-0.2-0.2-0.4-0.3 c-0.3-0.2-0.5-0.3-0.7-0.4c-0.2-0.1-0.5-0.2-0.8-0.3c-0.3-0.1-0.5-0.2-0.8-0.2c-0.3-0.1-0.4-0.1-0.6-0.1c0,0-0.1,0-0.1,0 c-0.1,0-0.1,0-0.2,0c-0.2,0-0.4,0-0.6,0c0,0-0.1,0-0.1,0l-0.1,0c-0.3,0-0.5,0-0.6,0.1c-0.3,0.1-0.7,0.1-1,0.3 c-0.3,0.1-0.6,0.3-0.9,0.4C26,7,25.7,7.2,25.5,7.4l-0.1,0.1c-0.1,0.1-0.2,0.1-0.3,0.2C25,7.8,24.8,7.9,24.7,8 c-0.2,0.2-0.5,0.3-0.8,0.3c-0.3,0-0.6-0.2-0.7-0.4c-0.1-0.1-0.2-0.2-0.2-0.3c0,0-0.1-0.1-0.1-0.1c-0.2-0.3-0.5-0.6-0.7-0.9 c0,0-0.1-0.1-0.1-0.1c-0.1-0.1-0.2-0.2-0.3-0.3C21.5,6,21.2,5.8,21,5.6c-0.2-0.2-0.4-0.3-0.7-0.5c-0.3-0.2-0.6-0.4-1-0.6l-0.1-0.1 c-0.4-0.2-0.7-0.3-1.1-0.5c-1.5-0.5-3.1-0.7-4.6-0.6c-0.2,0-0.4,0-0.5,0.1C11.6,3.7,10.2,4.2,8.9,5C8.6,5.2,8.2,5.4,7.8,5.8 C7.2,6.3,6.6,6.9,6.2,7.5c0,0-0.1,0.1-0.1,0.1c0,0,0,0-0.1,0.1c0,0,0,0.1-0.1,0.1c-0.6,0.8-1,1.6-1.3,2.5l-0.1,0.2 c-0.3,1-0.5,2-0.5,3.1c-0.1,4.5,2.7,8.6,6.9,10.2c1.3,0.5,2.6,0.7,4,0.6c0.2,0,0.4,0,0.6,0c0.3,0,0.5-0.1,0.8-0.1 c0.8-0.1,1.6-0.4,2.4-0.7C18.8,23.5,18.9,23.5,19.1,23.5z"/><path fill="#FBC02D" d="M17.3,21.8l3.9,6.1c0.6,0.9,1.7,1.1,2.6,0.5l9.7-6.6l1.8,2l-9.4,8.6c-0.5,0.5-0.8,1.1-0.9,1.8 c-0.3,2-0.6,6.5,1.3,9.9L15.6,44L18,33.7c0.1-0.3,0.1-0.6,0.1-0.9L17.3,21.8z"/><path fill="#5D4037" d="M26.1,45.2C26.1,45.2,26.1,45.2,26.1,45.2L15.6,45c-0.3,0-0.6-0.1-0.8-0.4s-0.3-0.5-0.2-0.8L17,33.5 c0-0.2,0.1-0.4,0-0.6l-0.8-11c0-0.5,0.2-0.9,0.7-1s0.9,0,1.2,0.4l3.9,6.1c0.2,0.4,0.8,0.5,1.2,0.3l9.7-6.6c0.4-0.3,1-0.2,1.3,0.2 l1.8,2c0.4,0.4,0.3,1-0.1,1.4l-9.4,8.6c-0.3,0.3-0.6,0.7-0.6,1.2c-0.2,1.7-0.6,6,1.1,9.2c0.1,0.2,0.2,0.4,0.2,0.6 C27.1,44.7,26.7,45.2,26.1,45.2C26.1,45.2,26.1,45.2,26.1,45.2z M16.9,43.1l7.7,0.1c-1.2-3.3-1-7-0.7-9c0.1-0.9,0.6-1.8,1.2-2.4 l8.6-7.9l-0.5-0.6l-8.9,6.1c-0.5,0.3-1,0.5-1.6,0.5c-1,0-1.9-0.5-2.4-1.3l-1.7-2.7l0.5,7c0,0.4,0,0.8-0.1,1.2L16.9,43.1z"/><circle cx="6.4" cy="31.3" r="1.6" fill="#7CB342"/><path fill="#5D4037" d="M6.4,33.3c-1.1,0-2.1-0.9-2.1-2.1s0.9-2.1,2.1-2.1c1.1,0,2.1,0.9,2.1,2.1c0,0.3-0.2,0.5-0.5,0.5 s-0.5-0.2-0.5-0.5c0-0.6-0.5-1.1-1.1-1.1c-0.6,0-1.1,0.5-1.1,1.1s0.5,1.1,1.1,1.1c0.3,0,0.5,0.2,0.5,0.5S6.7,33.3,6.4,33.3z"/><circle cx="7.6" cy="32.4" r=".5" fill="#5D4037"/><circle cx="31.2" cy="37.9" r="1.6" fill="#7CB342"/><path fill="#5D4037" d="M31.2,40c-1.1,0-2.1-0.9-2.1-2.1c0-1.1,0.9-2.1,2.1-2.1c1.1,0,2.1,0.9,2.1,2.1c0,0.3-0.2,0.5-0.5,0.5 s-0.5-0.2-0.5-0.5c0-0.6-0.5-1.1-1.1-1.1s-1.1,0.5-1.1,1.1s0.5,1.1,1.1,1.1c0.3,0,0.5,0.2,0.5,0.5S31.5,40,31.2,40z"/><circle cx="32.4" cy="39" r=".5" fill="#5D4037"/><circle cx="11.2" cy="30.9" r="1" fill="#7CB342"/><circle cx="38.4" cy="37.3" r="1" fill="#7CB342"/><path fill="#FFA000" d="M35,25.3l-9.1,7.8l-1.5,5.5l-2-0.2l0-5.6c0-0.4,0.2-0.7,0.5-1l9.8-8.5L35,25.3z"/><path fill="#5D4037" d="M26.1,45.2C26.1,45.2,26.1,45.2,26.1,45.2L15.6,45c-0.3,0-0.6-0.1-0.8-0.4s-0.3-0.5-0.2-0.8L17,33.5 c0-0.2,0.1-0.4,0-0.6l-0.8-11c0-0.5,0.2-0.9,0.7-1s0.9,0,1.2,0.4l3.9,6.1c0.2,0.4,0.8,0.5,1.2,0.3l9.7-6.6c0.4-0.3,1-0.2,1.3,0.2 l1.8,2c0.4,0.4,0.3,1-0.1,1.4l-9.4,8.6c-0.3,0.3-0.6,0.7-0.6,1.2c-0.2,1.7-0.6,6,1.1,9.2c0.1,0.2,0.2,0.4,0.2,0.6 C27.1,44.7,26.7,45.2,26.1,45.2C26.1,45.2,26.1,45.2,26.1,45.2z M16.9,43.1l7.7,0.1c-1.2-3.3-1-7-0.7-9c0.1-0.9,0.6-1.8,1.2-2.4 l8.6-7.9l-0.5-0.6l-8.9,6.1c-0.5,0.3-1,0.5-1.6,0.5c-1,0-1.9-0.5-2.4-1.3l-1.7-2.7l0.5,7c0,0.4,0,0.8-0.1,1.2L16.9,43.1z"/><path fill="#8BC34A" d="M19,26.5c-1,1.7-2.8,2.7-4.7,2.7c-0.8,0-1.5-0.2-2.3-0.5c-0.1,0-0.2-0.1-0.3-0.1c-1-0.6-1.7-1.4-2.2-2.4 c-1,0.8-2.5,0.9-3.7,0.2c-1.6-0.9-2.2-3-1.2-4.6c0.2-0.4,0.5-0.7,0.8-0.9c-1-1.3-1.1-3.2-0.3-4.7c0.6-1.1,1.6-1.8,2.8-2.1 c1-0.2,2.1-0.1,3,0.5c1.5,0.9,2.3,2.5,2.1,4.2c0.5-0.1,1.1-0.2,1.6-0.1c0.8,0,1.5,0.3,2.2,0.7h0c1.5,0.9,2.5,2.4,2.6,4 C19.7,24.4,19.5,25.5,19,26.5z"/><path fill="#689F38" d="M19,26.5c-1,1.7-2.8,2.7-4.7,2.7c-0.8,0-1.5-0.2-2.3-0.5c2.2-1.5,5.6-4.7,5-9.3h0c1.5,0.9,2.5,2.4,2.6,4 C19.7,24.4,19.5,25.5,19,26.5z"/><path fill="#5D4037" d="M14.3,30.2c-1.1,0-2.2-0.3-3.1-0.8c-0.4-0.3-0.8-0.5-1.2-0.9c-0.3-0.3-0.6-0.7-0.9-1 c-0.9,0.4-1.9,0.4-2.8,0.1c-0.3-0.1-0.6-0.2-1-0.4c-0.3-0.2-0.6-0.4-0.9-0.7c-1.4-1.4-1.7-3.5-0.7-5.3c0.1-0.2,0.3-0.4,0.4-0.6 c-0.8-1.6-0.8-3.5,0.1-5C5.2,14,7,13,8.9,13c0.9,0,1.8,0.2,2.6,0.7c1.4,0.8,2.4,2.3,2.6,3.9c1.2-0.1,2.3,0.2,3.4,0.8 c2.9,1.7,4,5.5,2.4,8.5L19.8,27C18.7,29,16.6,30.2,14.3,30.2z M9.5,25.1c0.1,0,0.2,0,0.2,0c0.3,0.1,0.5,0.3,0.7,0.5 c0.2,0.5,0.6,1,1,1.3c0.2,0.2,0.5,0.4,0.8,0.6c0.6,0.4,1.4,0.6,2.1,0.6c1.5,0,3-0.8,3.7-2.2l0.1-0.1c1.1-2,0.4-4.6-1.7-5.8 c-0.9-0.5-2.1-0.7-3.1-0.4c-0.3,0.1-0.6,0-0.9-0.2c-0.2-0.2-0.4-0.5-0.3-0.9c0.1-1.3-0.5-2.5-1.6-3.2C10,15.2,9.5,15,8.9,15 c-1.2,0-2.3,0.6-2.8,1.6c-0.6,1.1-0.6,2.5,0.2,3.6c0.3,0.4,0.2,1-0.2,1.4c-0.2,0.2-0.4,0.4-0.6,0.7c-0.5,0.9-0.4,2.1,0.4,2.8 c0.1,0.1,0.3,0.3,0.5,0.4c0.2,0.1,0.3,0.2,0.5,0.2c0.7,0.2,1.5,0.1,2.1-0.4C9.1,25.2,9.3,25.1,9.5,25.1z"/><path fill="#C5E1A5" d="M7.7 23.2c-.2 0-.3-.1-.5-.2-.3-.3-.3-.7 0-.9l2.5-2.5c.3-.3.7-.3.9 0s.3.7 0 .9L8.2 23C8.1 23.2 7.9 23.2 7.7 23.2zM9.6 24.3c-.2 0-.3-.1-.5-.2-.3-.3-.3-.7 0-.9l2.5-2.5c.3-.3.7-.3.9 0s.3.7 0 .9L10 24.1C9.9 24.2 9.7 24.3 9.6 24.3z"/><g><path fill="#8BC34A" d="M43.7,15.9c-0.3,0.4-0.7,0.7-1,1c-0.2,0.1-0.4,0.3-0.6,0.4c-0.1,0.1-0.2,0.1-0.3,0.2 c1.5,1.3,1.6,3.7-0.1,5c-0.6,0.5-1.2,0.7-1.9,0.7c-0.1,0-0.2,0-0.3,0c-0.5,0-0.9-0.2-1.3-0.4c-0.4-0.2-0.7-0.5-1-0.8 c-0.1,0.1-0.2,0.1-0.3,0.2c-0.1,0.2-0.2,0.4-0.3,0.5c-0.1,0.1-0.2,0.2-0.3,0.3c-1.1,1.1-2.7,1.3-4,0.7c-2.1,1.5-5,1.5-7-0.2 c-2.4-1.9-2.7-5.4-0.9-7.9c0.1-0.1,0.1-0.2,0.2-0.2c0.2-0.2,0.4-0.4,0.6-0.6c-0.2-0.7-0.3-1.4-0.3-2.1c0-0.3,0.1-0.6,0.1-0.9 c0.2-0.7,0.4-1.3,0.8-1.9c0.1-0.2,0.2-0.4,0.4-0.5c0.2-0.2,0.3-0.4,0.5-0.6c0.1-0.1,0.3-0.3,0.4-0.4c0.1-0.1,0.3-0.2,0.4-0.3 c1.8-1.2,4.2-1.3,6.1-0.2c0.4,0.2,0.7,0.5,1,0.8c0.2-0.1,0.3-0.2,0.5-0.3C37.1,6,40.6,5.7,43,7.7C45.4,9.7,45.7,13.4,43.7,15.9z"/><path fill="#5D4037" d="M28.7,25.7c-1.5,0-3-0.5-4.2-1.5c-2.8-2.3-3.2-6.3-1-9.2l0.2-0.3c0.1-0.1,0.2-0.2,0.3-0.3 c-0.1-0.6-0.2-1.2-0.2-1.9c0-0.4,0.1-0.7,0.1-1.1c0.2-0.8,0.5-1.6,0.9-2.3c0.1-0.2,0.3-0.4,0.5-0.6c0.2-0.2,0.4-0.4,0.6-0.7 c0.2-0.2,0.4-0.3,0.6-0.5c0.1-0.1,0.2-0.2,0.3-0.3c0,0,0.1-0.1,0.1-0.1c2.1-1.4,5-1.5,7.2-0.2c0.2,0.1,0.4,0.3,0.6,0.4 c1.3-1.2,3-1.9,4.7-1.9c1.6,0,3.1,0.5,4.3,1.5C45,8,45.8,9.7,46,11.5c0.2,1.8-0.4,3.7-1.6,5.1c-0.4,0.4-0.7,0.8-1.2,1.1 c0.4,0.7,0.6,1.4,0.6,2.2c0,1.3-0.6,2.5-1.6,3.3c-0.7,0.6-1.6,0.9-2.5,1c-0.2,0-0.3,0-0.5,0c-0.6,0-1.2-0.2-1.7-0.5 c-0.2-0.1-0.3-0.2-0.5-0.3c-0.1,0.1-0.2,0.2-0.3,0.3c-1.1,1.1-3,1.6-4.6,1.1C31.2,25.4,30,25.7,28.7,25.7z M30.7,8 c-0.9,0-1.9,0.3-2.7,0.8c-0.1,0.1-0.2,0.2-0.3,0.3c-0.2,0.1-0.3,0.2-0.4,0.3c-0.2,0.1-0.3,0.3-0.4,0.5c-0.1,0.2-0.2,0.3-0.3,0.5 c-0.3,0.5-0.5,1-0.7,1.6c0,0.2-0.1,0.5-0.1,0.8c0,0.6,0,1.2,0.2,1.7c0.1,0.4,0,0.8-0.3,1c-0.2,0.2-0.4,0.3-0.5,0.5l-0.2,0.2 c-1.5,2.1-1.2,4.9,0.7,6.5c0.8,0.7,1.9,1.1,2.9,1.1c1,0,2-0.3,2.8-0.9c0.3-0.2,0.7-0.3,1-0.1c0.9,0.5,2.1,0.3,2.9-0.5 c0.1-0.1,0.2-0.2,0.2-0.2c0.1-0.1,0.1-0.2,0.2-0.3c0.1-0.2,0.3-0.4,0.5-0.5c0.4-0.3,1.1-0.3,1.4,0.2c0.2,0.3,0.4,0.5,0.7,0.6 c0.3,0.1,0.6,0.2,0.9,0.3c0.1,0,0.2,0,0.2,0c0.5,0,0.9-0.2,1.3-0.5c0.6-0.5,0.9-1.1,0.9-1.8c0-0.7-0.3-1.3-0.8-1.7 c-0.3-0.2-0.4-0.5-0.4-0.9s0.2-0.6,0.5-0.8l0.3-0.2c0.1-0.1,0.3-0.2,0.4-0.3c0.3-0.2,0.6-0.5,0.8-0.8c0.9-1,1.3-2.3,1.1-3.6 c-0.1-1.3-0.7-2.4-1.7-3.2c-0.9-0.7-1.9-1.1-3-1.1c-1.3,0-2.6,0.6-3.6,1.5c-0.1,0.1-0.2,0.2-0.4,0.2c-0.1,0.1-0.2,0.1-0.3,0.2 c-0.4,0.3-0.9,0.2-1.3-0.1C33.6,9,33.3,8.8,33,8.6C32.3,8.2,31.5,8,30.7,8z"/></g><g><path fill="#C5E1A5" d="M28.2,19.3c-0.3,0-0.5-0.1-0.7-0.3c-0.4-0.4-0.4-1,0-1.4l3.8-3.8c0.4-0.4,1-0.4,1.4,0 c0.4,0.4,0.4,1,0,1.4l-3.8,3.8C28.7,19.2,28.5,19.3,28.2,19.3z"/></g><g><path fill="#C5E1A5" d="M31.1,21c-0.3,0-0.5-0.1-0.7-0.3c-0.4-0.4-0.4-1,0-1.4l3.8-3.8c0.4-0.4,1-0.4,1.4,0c0.4,0.4,0.4,1,0,1.4 l-3.8,3.8C31.6,20.9,31.3,21,31.1,21z"/></g><g><path fill="#A1887F" d="M33.1,43.3c0,0-2.9-0.2-2.9-0.3c0-0.5-0.6-1-1.5-1.4c-0.6-1.3-3.2-2.3-6.4-2.3c-2.7,0-5,0.7-6,1.8 c-0.5,0.5-1.1,0.8-1.8,0.8c0,0,0,0,0,0c-1.9,0-3.4,0.6-3.5,1.4h-0.3c-0.7,0-1.2,0.4-1.2,0.9c0,0.5,0.5,0.9,1.2,0.9h22.4 c0.7,0,1.2-0.4,1.2-0.9C34.3,43.7,33.8,43.3,33.1,43.3z"/><path fill="#5D4037" d="M33.1,46.1H10.7c-1.2,0-2.2-0.8-2.2-1.9c0-1,0.8-1.7,1.8-1.9c0.8-1,2.5-1.5,4.2-1.5c0.5,0,0.9-0.2,1.1-0.4 c1.2-1.3,3.8-2.1,6.7-2.1c2.8,0,5.9,0.8,7.1,2.5c0.9,0.4,1.3,0.8,1.5,1.3c0.5,0.1,1.4,0.1,2.2,0.2c0,0,0,0,0,0 c1.2,0,2.1,0.8,2.1,1.9C35.3,45.2,34.3,46.1,33.1,46.1z M11.8,44.1h18.6c-1-0.2-1.2-0.4-1.2-1.1h0c0,0-0.2-0.2-0.8-0.4L28,42.4 L27.8,42c-0.3-0.7-2.4-1.7-5.4-1.7c-2.7,0-4.6,0.8-5.2,1.5c-0.6,0.7-1.5,1.1-2.6,1.1c-1.6,0-2.5,0.5-2.6,0.7L11.8,44.1z"/></g><g><path fill="#689F38" d="M43.7,15.9c-0.3,0.4-0.7,0.7-1,1c-0.2,0.1-0.4,0.3-0.6,0.4c-0.1,0.1-0.2,0.1-0.3,0.2 c1.5,1.3,1.6,3.7-0.1,5c0,0,0,0,0,0c-1.2-0.7-1.8,1.2-3,0.5c0.2-1.5,1-4.4,0.8-5.1c-0.1-0.3-0.1-0.5,0-0.8 c3.4-8.5-2.1-6.3-4.4-5.1c-0.5,0.3-1.1,0.1-1.4-0.3c-1.8-2.4-4.4-1.9-6.1-1.2c-0.8,0.3-1.6-0.4-1.5-1.2l0-0.1 c0.2-0.2,0.3-0.4,0.5-0.6c0.1-0.1,0.3-0.3,0.4-0.4c0.1-0.1,0.3-0.2,0.4-0.3c1.8-1.2,4.2-1.3,6.1-0.2c0.4,0.2,0.7,0.5,1,0.8 c0.2-0.1,0.3-0.2,0.5-0.3C37.1,6,40.6,5.7,43,7.7C45.4,9.7,45.7,13.4,43.7,15.9z"/></g><g><path fill="#5D4037" d="M28.7,25.7c-1.5,0-3-0.5-4.2-1.5c-2.8-2.3-3.2-6.3-1-9.2l0.2-0.3c0.1-0.1,0.2-0.2,0.3-0.3 c-0.1-0.6-0.2-1.2-0.2-1.9c0-0.4,0.1-0.7,0.1-1.1c0.2-0.8,0.5-1.6,0.9-2.3c0.3-0.5,0.6-0.9,1-1.3c0.2-0.2,0.4-0.3,0.6-0.5 c2-1.6,5.3-1.9,7.6-0.5c0.2,0.1,0.4,0.3,0.6,0.4c1.3-1.2,3-1.9,4.7-1.9c1.6,0,3.1,0.5,4.3,1.5C45,8,45.8,9.7,46,11.5 c0.2,1.8-0.4,3.7-1.6,5.1c-0.4,0.4-0.7,0.8-1.2,1.1c0.4,0.7,0.6,1.4,0.6,2.2c0,1.3-0.6,2.5-1.6,3.3c-1.3,1-3.2,1.2-4.7,0.5 c-0.2-0.1-0.3-0.2-0.5-0.3c-0.1,0.1-0.2,0.2-0.3,0.3c-1.1,1.1-3,1.6-4.6,1.1C31.2,25.4,30,25.7,28.7,25.7z M30.6,8 c-1.1,0-2.2,0.4-3,1.1c-0.2,0.1-0.3,0.2-0.4,0.3c-0.3,0.3-0.5,0.6-0.7,0.9c-0.3,0.5-0.5,1-0.7,1.6c0,0.2-0.1,0.5-0.1,0.8 c0,0.6,0,1.2,0.2,1.7c0.1,0.4,0,0.8-0.3,1c-0.2,0.2-0.4,0.3-0.5,0.5l-0.2,0.2c-1.5,2.1-1.2,4.9,0.7,6.5c0.8,0.7,1.9,1.1,2.9,1.1 c1,0,2-0.3,2.8-0.9c0.3-0.2,0.7-0.3,1-0.1c0.9,0.5,2.1,0.3,2.9-0.5c0.1-0.1,0.2-0.2,0.2-0.2c0.1-0.1,0.1-0.2,0.2-0.3 c0.1-0.2,0.3-0.4,0.5-0.5c0.4-0.3,1.1-0.3,1.4,0.2c0.2,0.3,0.4,0.5,0.7,0.6c0.8,0.4,1.8,0.3,2.5-0.2c0.6-0.5,0.9-1.1,0.9-1.8 c0-0.7-0.3-1.3-0.8-1.7c-0.3-0.2-0.4-0.5-0.4-0.9s0.2-0.6,0.5-0.8l0.3-0.2c0.1-0.1,0.3-0.2,0.4-0.3c0.3-0.2,0.6-0.5,0.8-0.8 c0.9-1,1.3-2.3,1.1-3.6c-0.1-1.3-0.7-2.4-1.7-3.2c-0.9-0.7-1.9-1.1-3-1.1c-1.3,0-2.6,0.6-3.6,1.5c-0.1,0.1-0.2,0.2-0.4,0.2 c-0.1,0.1-0.2,0.1-0.3,0.2c-0.4,0.3-0.9,0.2-1.3-0.1C33.6,9,33.3,8.8,33,8.6C32.3,8.2,31.5,8,30.6,8z"/></g></svg>